#N canvas 1286 307 842 592 10;
#N canvas 0 22 450 278 (subpatch) 0;
#X array array1 131072 float 2;
#X coords 0 1 131072 -1 200 140 1 0 0;
#X restore 570 225 graph;
#X obj 36 29 openpanel;
#X symbolatom 168 94 80 0 0 0 - - -, f 80;
#X msg 37 -2 symbol ~/Dropbox/Documents-new-home/genaudios;
#X obj 259 128 print;
#X obj 155 13 bng 15 250 50 0 empty empty empty 17 7 0 10 -262144 -1
-1;
#X msg 50 118 set \$1;
#X msg 50 144 /Users/b/Dropbox/AB-local/Documents-new-home/genaudios/01245.wav
;
#X msg 414 5 /Users/b/Dropbox/AB-local/Documents-new-home/genaudios/[60 61 63 64 67 69]([0 1 3 4 7 9]).wav
;
#X msg 449 120 read -resize /Users/b/Dropbox/AB-local/Documents-new-home/genaudios/[60
61 63 64 67 69]([0 1 3 4 7 9]).wav array1;
#X symbolatom 48 52 80 0 0 0 - - -, f 80;
#X msg 60 206 read -resize /Users/b/Dropbox/AB-local/Documents-new-home/genaudios/01245.wav
array1;
#X msg 444 183 \; array1 print;
#X msg 454 225 \; array1 normalize;
#X obj 61 258 soundfiler;
#X floatatom 61 284 10 0 0 0 - - -, f 10;
#X obj 298 318 line~;
#X obj 292 398 dac~;
#X obj 298 367 *~ 0.4;
#X msg 158 269 44100 \, 131072 1000;
#X msg 154 294 0 \, 131072 3000;
#X floatatom 41 322 5 0 0 0 - - -, f 5;
#X floatatom 41 364 14 0 0 0 - - -, f 14;
#X obj 41 341 * 44100;
#X floatatom 38 400 5 0 0 0 - - -, f 5;
#X floatatom 38 442 14 0 0 0 - - -, f 14;
#X obj 38 419 / 44100;
#X obj 169 408 -;
#X floatatom 203 372 5 0 0 0 - - -, f 5;
#X floatatom 169 343 10 0 0 0 - - -, f 10;
#X floatatom 176 439 10 0 0 0 - - -, f 10;
#X obj 37 472 * 1000;
#X floatatom 37 494 5 0 0 0 - - -, f 5;
#X msg 298 265 66000 \, 131072 1475;
#X obj 298 341 tabread4~ array1;
#X obj 436 460 +~ 1;
#X obj 436 482 tabread4~ array1;
#X obj 436 504 *~ 0.7;
#X obj 440 546 dac~;
#X obj 436 438 *~ 131072;
#X obj 436 416 phasor~ 0.5;
#X floatatom 547 548 5 0 0 0 - - -, f 5;
#X obj 436 343 *~ -1;
#X obj 436 381 +~ 1;
#X obj 437 311 phasor~ 0.19;
#X connect 1 0 10 0;
#X connect 2 0 4 0;
#X connect 3 0 1 0;
#X connect 5 0 10 0;
#X connect 6 0 7 0;
#X connect 10 0 6 0;
#X connect 11 0 14 0;
#X connect 14 0 15 0;
#X connect 16 0 34 0;
#X connect 18 0 17 0;
#X connect 18 0 17 1;
#X connect 19 0 16 0;
#X connect 20 0 16 0;
#X connect 21 0 23 0;
#X connect 22 0 24 0;
#X connect 23 0 22 0;
#X connect 24 0 26 0;
#X connect 25 0 31 0;
#X connect 26 0 25 0;
#X connect 27 0 30 0;
#X connect 28 0 27 1;
#X connect 29 0 27 0;
#X connect 30 0 24 0;
#X connect 31 0 32 0;
#X connect 33 0 16 0;
#X connect 34 0 18 0;
#X connect 35 0 36 0;
#X connect 36 0 37 0;
#X connect 37 0 38 0;
#X connect 37 0 38 1;
#X connect 39 0 35 0;
#X connect 40 0 39 0;
#X connect 42 0 43 0;
#X connect 43 0 40 0;
#X connect 44 0 42 0;
